<mxfile host="app.diagrams.net" agent="Mozilla/5.0 (Windows NT 10.0; Win64; x64) AppleWebKit/537.36 (KHTML, like Gecko) Chrome/131.0.0.0 Safari/537.36" version="26.0.4">
  <diagram name="第 1 页" id="-w0fIJSnfiCiCUUtDNnS">
    <mxGraphModel dx="977" dy="620" grid="1" gridSize="10" guides="1" tooltips="1" connect="1" arrows="1" fold="1" page="1" pageScale="1" pageWidth="827" pageHeight="1169" math="0" shadow="0">
      <root>
        <mxCell id="0" />
        <mxCell id="1" parent="0" />
        <mxCell id="U2vjxOWAApV4ybTa-bHR-1" value="" style="verticalLabelPosition=bottom;aspect=fixed;html=1;shape=mxgraph.salesforce.iot2;" vertex="1" parent="1">
          <mxGeometry x="480" y="430" width="60" height="60" as="geometry" />
        </mxCell>
        <mxCell id="U2vjxOWAApV4ybTa-bHR-2" value="" style="verticalLabelPosition=bottom;aspect=fixed;html=1;shape=mxgraph.salesforce.iot2;" vertex="1" parent="1">
          <mxGeometry x="330" y="300" width="60" height="60" as="geometry" />
        </mxCell>
        <mxCell id="U2vjxOWAApV4ybTa-bHR-3" value="" style="verticalLabelPosition=bottom;aspect=fixed;html=1;shape=mxgraph.salesforce.iot2;" vertex="1" parent="1">
          <mxGeometry x="480" y="170" width="60" height="60" as="geometry" />
        </mxCell>
        <mxCell id="U2vjxOWAApV4ybTa-bHR-4" value="" style="verticalLabelPosition=bottom;aspect=fixed;html=1;shape=mxgraph.salesforce.iot2;" vertex="1" parent="1">
          <mxGeometry x="480" y="300" width="60" height="60" as="geometry" />
        </mxCell>
        <mxCell id="U2vjxOWAApV4ybTa-bHR-5" value="" style="verticalLabelPosition=bottom;aspect=fixed;html=1;shape=mxgraph.salesforce.communications2;" vertex="1" parent="1">
          <mxGeometry x="160" y="300" width="60" height="60" as="geometry" />
        </mxCell>
        <mxCell id="U2vjxOWAApV4ybTa-bHR-6" value="" style="shape=flexArrow;endArrow=classic;startArrow=classic;html=1;rounded=0;startWidth=10.285714285714286;startSize=5.714285714285714;endWidth=10.285714285714286;endSize=5.714285714285714;entryX=0;entryY=0.5;entryDx=0;entryDy=0;entryPerimeter=0;fillColor=#dae8fc;strokeColor=#6c8ebf;" edge="1" parent="1" target="U2vjxOWAApV4ybTa-bHR-4">
          <mxGeometry width="100" height="100" relative="1" as="geometry">
            <mxPoint x="390" y="329.71000000000004" as="sourcePoint" />
            <mxPoint x="450" y="330" as="targetPoint" />
            <Array as="points">
              <mxPoint x="440" y="330" />
            </Array>
          </mxGeometry>
        </mxCell>
        <mxCell id="U2vjxOWAApV4ybTa-bHR-7" value="" style="shape=flexArrow;endArrow=classic;startArrow=classic;html=1;rounded=0;startWidth=10.285714285714286;startSize=5.714285714285714;endWidth=10.285714285714286;endSize=5.714285714285714;entryX=0;entryY=0.5;entryDx=0;entryDy=0;entryPerimeter=0;fillColor=#d5e8d4;strokeColor=#82b366;" edge="1" parent="1">
          <mxGeometry width="100" height="100" relative="1" as="geometry">
            <mxPoint x="230" y="299.99999999999994" as="sourcePoint" />
            <mxPoint x="320" y="300.28999999999996" as="targetPoint" />
          </mxGeometry>
        </mxCell>
        <mxCell id="U2vjxOWAApV4ybTa-bHR-8" value="" style="shape=flexArrow;endArrow=classic;startArrow=classic;html=1;rounded=0;startWidth=10.285714285714286;startSize=5.714285714285714;endWidth=10.285714285714286;endSize=5.714285714285714;entryX=0.049;entryY=0.752;entryDx=0;entryDy=0;entryPerimeter=0;fillColor=#dae8fc;strokeColor=#6c8ebf;" edge="1" parent="1" target="U2vjxOWAApV4ybTa-bHR-3">
          <mxGeometry width="100" height="100" relative="1" as="geometry">
            <mxPoint x="380" y="300" as="sourcePoint" />
            <mxPoint x="470" y="240" as="targetPoint" />
          </mxGeometry>
        </mxCell>
        <mxCell id="U2vjxOWAApV4ybTa-bHR-9" value="" style="shape=flexArrow;endArrow=classic;startArrow=classic;html=1;rounded=0;startWidth=10.285714285714286;startSize=5.714285714285714;endWidth=10.285714285714286;endSize=5.714285714285714;fillColor=#dae8fc;strokeColor=#6c8ebf;" edge="1" parent="1">
          <mxGeometry width="100" height="100" relative="1" as="geometry">
            <mxPoint x="380" y="360" as="sourcePoint" />
            <mxPoint x="480" y="450" as="targetPoint" />
          </mxGeometry>
        </mxCell>
        <mxCell id="U2vjxOWAApV4ybTa-bHR-13" value="" style="shape=flexArrow;endArrow=classic;startArrow=classic;html=1;rounded=0;startWidth=10.285714285714286;startSize=5.714285714285714;endWidth=10.285714285714286;endSize=5.714285714285714;entryX=0;entryY=0.5;entryDx=0;entryDy=0;entryPerimeter=0;fillColor=#ffe6cc;strokeColor=#d79b00;" edge="1" parent="1">
          <mxGeometry width="100" height="100" relative="1" as="geometry">
            <mxPoint x="230" y="329.99999999999994" as="sourcePoint" />
            <mxPoint x="320" y="330.28999999999996" as="targetPoint" />
          </mxGeometry>
        </mxCell>
        <mxCell id="U2vjxOWAApV4ybTa-bHR-14" value="" style="shape=flexArrow;endArrow=classic;startArrow=classic;html=1;rounded=0;startWidth=10.285714285714286;startSize=5.714285714285714;endWidth=10.285714285714286;endSize=5.714285714285714;entryX=0;entryY=0.5;entryDx=0;entryDy=0;entryPerimeter=0;fillColor=#fff2cc;strokeColor=#d6b656;" edge="1" parent="1">
          <mxGeometry width="100" height="100" relative="1" as="geometry">
            <mxPoint x="230" y="358.99999999999994" as="sourcePoint" />
            <mxPoint x="320" y="359.28999999999996" as="targetPoint" />
          </mxGeometry>
        </mxCell>
        <mxCell id="U2vjxOWAApV4ybTa-bHR-15" value="" style="shape=flexArrow;endArrow=classic;startArrow=classic;html=1;rounded=0;startWidth=2.7419354838709675;startSize=1.912;endWidth=2.7419354838709675;endSize=1.912;fillColor=#dae8fc;strokeColor=#6c8ebf;width=3.04;" edge="1" parent="1">
          <mxGeometry width="100" height="100" relative="1" as="geometry">
            <mxPoint x="170" y="440" as="sourcePoint" />
            <mxPoint x="200" y="440" as="targetPoint" />
          </mxGeometry>
        </mxCell>
        <mxCell id="U2vjxOWAApV4ybTa-bHR-16" value="" style="shape=flexArrow;endArrow=classic;startArrow=classic;html=1;rounded=0;startWidth=2.7419354838709675;startSize=1.912;endWidth=2.7419354838709675;endSize=1.912;fillColor=#d5e8d4;strokeColor=#82b366;width=3.04;" edge="1" parent="1">
          <mxGeometry width="100" height="100" relative="1" as="geometry">
            <mxPoint x="170" y="450" as="sourcePoint" />
            <mxPoint x="200" y="450" as="targetPoint" />
          </mxGeometry>
        </mxCell>
        <mxCell id="U2vjxOWAApV4ybTa-bHR-17" value="" style="shape=flexArrow;endArrow=classic;startArrow=classic;html=1;rounded=0;startWidth=2.7419354838709675;startSize=1.912;endWidth=2.7419354838709675;endSize=1.912;fillColor=#ffe6cc;strokeColor=#d79b00;width=3.04;" edge="1" parent="1">
          <mxGeometry width="100" height="100" relative="1" as="geometry">
            <mxPoint x="170" y="460" as="sourcePoint" />
            <mxPoint x="200" y="460" as="targetPoint" />
          </mxGeometry>
        </mxCell>
        <mxCell id="U2vjxOWAApV4ybTa-bHR-18" value="" style="shape=flexArrow;endArrow=classic;startArrow=classic;html=1;rounded=0;startWidth=2.7419354838709675;startSize=1.912;endWidth=2.7419354838709675;endSize=1.912;fillColor=#fff2cc;strokeColor=#d6b656;width=3.04;" edge="1" parent="1">
          <mxGeometry width="100" height="100" relative="1" as="geometry">
            <mxPoint x="170" y="470" as="sourcePoint" />
            <mxPoint x="200" y="470" as="targetPoint" />
          </mxGeometry>
        </mxCell>
        <mxCell id="U2vjxOWAApV4ybTa-bHR-19" value="&lt;span style=&quot;font-size: 10px;&quot;&gt;freq1&lt;/span&gt;" style="text;html=1;align=center;verticalAlign=middle;whiteSpace=wrap;rounded=0;" vertex="1" parent="1">
          <mxGeometry x="210" y="430" width="20" height="10" as="geometry" />
        </mxCell>
        <mxCell id="U2vjxOWAApV4ybTa-bHR-20" value="&lt;span style=&quot;font-size: 10px;&quot;&gt;freq2&lt;/span&gt;" style="text;html=1;align=center;verticalAlign=middle;whiteSpace=wrap;rounded=0;" vertex="1" parent="1">
          <mxGeometry x="210" y="440" width="20" height="10" as="geometry" />
        </mxCell>
        <mxCell id="U2vjxOWAApV4ybTa-bHR-21" value="&lt;span style=&quot;font-size: 10px;&quot;&gt;freq3&lt;/span&gt;" style="text;html=1;align=center;verticalAlign=middle;whiteSpace=wrap;rounded=0;" vertex="1" parent="1">
          <mxGeometry x="210" y="450" width="20" height="10" as="geometry" />
        </mxCell>
        <mxCell id="U2vjxOWAApV4ybTa-bHR-22" value="&lt;span style=&quot;font-size: 10px;&quot;&gt;freq4&lt;/span&gt;" style="text;html=1;align=center;verticalAlign=middle;whiteSpace=wrap;rounded=0;" vertex="1" parent="1">
          <mxGeometry x="210" y="460" width="20" height="10" as="geometry" />
        </mxCell>
        <mxCell id="U2vjxOWAApV4ybTa-bHR-28" value="&lt;font style=&quot;font-size: 18px;&quot;&gt;FDMA&lt;/font&gt;" style="text;html=1;align=center;verticalAlign=middle;whiteSpace=wrap;rounded=0;" vertex="1" parent="1">
          <mxGeometry x="240" y="170" width="60" height="30" as="geometry" />
        </mxCell>
        <mxCell id="U2vjxOWAApV4ybTa-bHR-29" value="&lt;font style=&quot;font-size: 18px;&quot;&gt;CDMA&lt;/font&gt;" style="text;html=1;align=center;verticalAlign=middle;whiteSpace=wrap;rounded=0;" vertex="1" parent="1">
          <mxGeometry x="400" y="170" width="60" height="30" as="geometry" />
        </mxCell>
      </root>
    </mxGraphModel>
  </diagram>
</mxfile>
